<svg width="59" height="59" viewBox="0 0 59 59" fill="none" xmlns="http://www.w3.org/2000/svg">
<path d="M39.1741 48.9676V9.79349C39.1741 8.49479 38.6582 7.24928 37.7399 6.33096C36.8216 5.41264 35.5761 4.89673 34.2774 4.89673H24.4838C23.1851 4.89673 21.9396 5.41264 21.0213 6.33096C20.103 7.24928 19.5871 8.49479 19.5871 9.79349V48.9676" stroke="black" stroke-width="4.89677" stroke-linecap="round" stroke-linejoin="round"/>
<path d="M48.9677 14.6902H9.79353C7.08912 14.6902 4.89676 16.8825 4.89676 19.587V44.0708C4.89676 46.7752 7.08912 48.9675 9.79353 48.9675H48.9677C51.6721 48.9675 53.8644 46.7752 53.8644 44.0708V19.587C53.8644 16.8825 51.6721 14.6902 48.9677 14.6902Z" stroke="black" stroke-width="4.89677" stroke-linecap="round" stroke-linejoin="round"/>
</svg>
