<svg width="59" height="59" viewBox="0 0 59 59" fill="none" xmlns="http://www.w3.org/2000/svg">
<path d="M46.5193 41.6225H51.4161C52.8851 41.6225 53.8644 40.6431 53.8644 39.1741V31.829C53.8644 29.6254 52.1506 27.6667 50.1919 27.177C45.7848 25.9529 39.1741 24.4838 39.1741 24.4838C39.1741 24.4838 35.9912 21.0561 33.7877 18.8525C32.5635 17.8732 31.0945 17.1387 29.3806 17.1387H12.2419C10.7729 17.1387 9.5487 18.118 8.81419 19.3422L5.38645 26.4425C5.06224 27.3882 4.89677 28.3809 4.89677 29.3806V39.1741C4.89677 40.6431 5.87613 41.6225 7.34516 41.6225H12.2419" stroke="black" stroke-width="4.89677" stroke-linecap="round" stroke-linejoin="round"/>
<path d="M17.1387 46.5194C19.8431 46.5194 22.0355 44.327 22.0355 41.6226C22.0355 38.9182 19.8431 36.7258 17.1387 36.7258C14.4343 36.7258 12.2419 38.9182 12.2419 41.6226C12.2419 44.327 14.4343 46.5194 17.1387 46.5194Z" stroke="black" stroke-width="4.89677" stroke-linecap="round" stroke-linejoin="round"/>
<path d="M22.0355 41.6226H36.7258" stroke="black" stroke-width="4.89677" stroke-linecap="round" stroke-linejoin="round"/>
<path d="M41.6225 46.5194C44.3269 46.5194 46.5193 44.327 46.5193 41.6226C46.5193 38.9182 44.3269 36.7258 41.6225 36.7258C38.9181 36.7258 36.7258 38.9182 36.7258 41.6226C36.7258 44.327 38.9181 46.5194 41.6225 46.5194Z" stroke="black" stroke-width="4.89677" stroke-linecap="round" stroke-linejoin="round"/>
</svg>
