<svg width="54" height="54" viewBox="0 0 54 54" fill="none" xmlns="http://www.w3.org/2000/svg">
<path d="M27 5.0625C27.4476 5.0625 27.8768 5.24029 28.1932 5.55676C28.5097 5.87322 28.6875 6.30245 28.6875 6.75V9.5625H38.25C38.6976 9.5625 39.1268 9.74029 39.4432 10.0568C39.7597 10.3732 39.9375 10.8024 39.9375 11.25C39.9375 11.6976 39.7597 12.1268 39.4432 12.4432C39.1268 12.7597 38.6976 12.9375 38.25 12.9375H28.6875V25.3125H32.625C35.1611 25.3125 37.5934 26.32 39.3867 28.1133C41.18 29.9066 42.1875 32.3389 42.1875 34.875C42.1875 37.4111 41.18 39.8434 39.3867 41.6367C37.5934 43.43 35.1611 44.4375 32.625 44.4375H28.6875V47.25C28.6875 47.6976 28.5097 48.1268 28.1932 48.4432C27.8768 48.7597 27.4476 48.9375 27 48.9375C26.5524 48.9375 26.1232 48.7597 25.8068 48.4432C25.4903 48.1268 25.3125 47.6976 25.3125 47.25V44.4375H13.5C13.0524 44.4375 12.6232 44.2597 12.3068 43.9432C11.9903 43.6268 11.8125 43.1976 11.8125 42.75C11.8125 42.3024 11.9903 41.8732 12.3068 41.5568C12.6232 41.2403 13.0524 41.0625 13.5 41.0625H25.3125V28.6875H21.375C18.8389 28.6875 16.4066 27.68 14.6133 25.8867C12.82 24.0934 11.8125 21.6611 11.8125 19.125C11.8125 16.5889 12.82 14.1566 14.6133 12.3633C16.4066 10.57 18.8389 9.5625 21.375 9.5625H25.3125V6.75C25.3125 6.30245 25.4903 5.87322 25.8068 5.55676C26.1232 5.24029 26.5524 5.0625 27 5.0625ZM25.3125 12.9375H21.375C19.734 12.9375 18.1602 13.5894 16.9998 14.7498C15.8394 15.9102 15.1875 17.484 15.1875 19.125C15.1875 20.766 15.8394 22.3398 16.9998 23.5002C18.1602 24.6606 19.734 25.3125 21.375 25.3125H25.3125V12.9375ZM28.6875 28.6875V41.0625H32.625C34.266 41.0625 35.8398 40.4106 37.0002 39.2502C38.1606 38.0898 38.8125 36.516 38.8125 34.875C38.8125 33.234 38.1606 31.6602 37.0002 30.4998C35.8398 29.3394 34.266 28.6875 32.625 28.6875H28.6875Z" fill="#004DA1"/>
</svg>
