<svg width="54" height="54" viewBox="0 0 54 54" fill="none" xmlns="http://www.w3.org/2000/svg">
<path fill-rule="evenodd" clip-rule="evenodd" d="M10.602 40.8172C7.14376 37.0147 6.19876 32.2042 6.61951 27.9067C7.08301 23.166 9.24526 18.6187 12.06 16.272C15.822 13.1377 19.773 11.8507 23.202 11.2207C24.872 10.9356 26.5536 10.7231 28.242 10.584C29.151 10.4985 30.0713 10.413 30.9555 10.1925C32.8185 9.72671 34.6568 8.97071 36.171 7.76921C36.864 7.21796 37.566 6.65996 38.4998 6.76346C38.8354 6.8008 39.1584 6.91323 39.4446 7.0924C39.7309 7.27157 39.9732 7.51289 40.1535 7.79846C47.3535 19.1992 46.2668 31.302 40.2525 38.925C37.2488 42.7297 33.03 45.3847 28.1093 46.17C23.8163 46.8517 19.125 46.089 14.3978 43.614C13.9824 44.905 13.6739 46.2279 13.4753 47.5695C13.3908 48.1602 13.0752 48.6933 12.5977 49.0513C12.1203 49.4093 11.5202 49.563 10.9294 49.4786C10.3386 49.3941 9.80558 49.0785 9.44755 48.601C9.08952 48.1236 8.93582 47.5235 9.02026 46.9327C9.29926 44.9865 9.83026 42.9142 10.602 40.8172ZM24.012 15.6465C25.596 15.3562 27.0833 15.2167 28.5278 15.075C29.7068 14.9625 30.8948 14.8455 32.0468 14.5575C33.9869 14.0821 35.8449 13.3192 37.5593 12.294C42.4598 21.5572 41.0918 30.5955 36.72 36.1395C34.362 39.1275 31.1198 41.1345 27.405 41.724C24.0683 42.255 20.205 41.67 16.0875 39.4155C18.5895 34.3147 22.68 29.4255 28.0058 26.7637C28.5398 26.497 28.9461 26.029 29.1351 25.4627C29.3242 24.8965 29.2805 24.2783 29.0138 23.7442C28.747 23.2101 28.279 22.8039 27.7128 22.6149C27.1465 22.4258 26.5283 22.4695 25.9943 22.7362C20.1263 25.6702 15.6308 30.744 12.708 36.1552C11.2658 33.7927 10.8338 31.0455 11.0993 28.3432C11.4795 24.4552 13.2593 21.132 14.94 19.728C17.928 17.2372 21.078 16.1865 24.0143 15.6465H24.012Z" fill="#004DA1"/>
</svg>
