<svg width="54" height="54" viewBox="0 0 54 54" fill="none" xmlns="http://www.w3.org/2000/svg">
<path d="M42.3984 17.7188C42.0894 22.0082 38.9074 25.3125 35.4375 25.3125C31.9676 25.3125 28.7803 22.0092 28.4766 17.7188C28.1602 13.2564 31.2578 10.125 35.4375 10.125C39.6172 10.125 42.7148 13.3376 42.3984 17.7188Z" stroke="#004DA1" stroke-width="3.375" stroke-linecap="round" stroke-linejoin="round"/>
<path d="M35.4375 32.0625C28.5641 32.0625 21.9544 35.4765 20.2985 42.1253C20.0791 43.0049 20.6307 43.875 21.5346 43.875H49.3414C50.2453 43.875 50.7937 43.0049 50.5775 42.1253C48.9217 35.37 42.3119 32.0625 35.4375 32.0625Z" stroke="#004DA1" stroke-width="3.375" stroke-miterlimit="10"/>
<path d="M21.0938 19.6109C20.847 23.0365 18.2756 25.7344 15.5039 25.7344C12.7322 25.7344 10.1566 23.0375 9.91406 19.6109C9.66199 16.0471 12.1648 13.5 15.5039 13.5C18.843 13.5 21.3458 16.1125 21.0938 19.6109Z" stroke="#004DA1" stroke-width="3.375" stroke-linecap="round" stroke-linejoin="round"/>
<path d="M21.7266 32.2735C19.8228 31.4013 17.7261 31.0659 15.5039 31.0659C10.0195 31.0659 4.73554 33.7923 3.41191 39.1026C3.23788 39.8051 3.67874 40.5001 4.40015 40.5001H16.2422" stroke="#004DA1" stroke-width="3.375" stroke-miterlimit="10" stroke-linecap="round"/>
</svg>
