<svg width="54" height="54" viewBox="0 0 54 54" fill="none" xmlns="http://www.w3.org/2000/svg">
<path d="M27 0.98999L49.5 8.86499V27C49.5 36.2857 43.8008 42.777 38.484 46.8067C35.2768 49.2175 31.7572 51.1817 28.0215 52.6455L27.8257 52.7197L27.7695 52.74L27.7537 52.7445L27.747 52.7467C27.7447 52.7467 27.7425 52.7467 27 50.625L26.2552 52.749L26.2463 52.7445L26.2305 52.74L26.1743 52.7175L25.9785 52.6455C24.9173 52.2351 23.8739 51.7802 22.851 51.282C20.2689 50.0276 17.8127 48.529 15.516 46.8067C10.2015 42.777 4.5 36.2857 4.5 27V8.86499L27 0.98999ZM27 50.625L26.2552 52.749L27 53.01L27.7448 52.749L27 50.625ZM27 48.213L27.0203 48.204C30.1335 46.9172 33.0719 45.2427 35.766 43.2202C40.5765 39.5775 45 34.2517 45 27V12.06L27 5.75999L9 12.06V27C9 34.2517 13.4235 39.573 18.234 43.2225C20.934 45.2488 23.8794 46.9256 27 48.213ZM40.662 18.7717L24.7523 34.6815L15.2055 25.137L18.3893 21.9532L24.75 28.3185L37.4782 15.5902L40.662 18.7717Z" fill="#004DA1"/>
</svg>
