<svg width="54" height="54" viewBox="0 0 54 54" fill="none" xmlns="http://www.w3.org/2000/svg">
<path d="M15.75 33.75H22.5C23.0967 33.75 23.669 33.5129 24.091 33.091C24.5129 32.669 24.75 32.0967 24.75 31.5C24.75 30.9033 24.5129 30.331 24.091 29.909C23.669 29.4871 23.0967 29.25 22.5 29.25H15.75C15.1533 29.25 14.581 29.4871 14.159 29.909C13.7371 30.331 13.5 30.9033 13.5 31.5C13.5 32.0967 13.7371 32.669 14.159 33.091C14.581 33.5129 15.1533 33.75 15.75 33.75ZM42.75 11.25H11.25C9.45979 11.25 7.7429 11.9612 6.47703 13.227C5.21116 14.4929 4.5 16.2098 4.5 18V38.25C4.5 40.0402 5.21116 41.7571 6.47703 43.023C7.7429 44.2888 9.45979 45 11.25 45H42.75C44.5402 45 46.2571 44.2888 47.523 43.023C48.7888 41.7571 49.5 40.0402 49.5 38.25V18C49.5 16.2098 48.7888 14.4929 47.523 13.227C46.2571 11.9612 44.5402 11.25 42.75 11.25ZM45 38.25C45 38.8467 44.7629 39.419 44.341 39.841C43.919 40.2629 43.3467 40.5 42.75 40.5H11.25C10.6533 40.5 10.081 40.2629 9.65901 39.841C9.23705 39.419 9 38.8467 9 38.25V24.75H45V38.25ZM45 20.25H9V18C9 17.4033 9.23705 16.831 9.65901 16.409C10.081 15.9871 10.6533 15.75 11.25 15.75H42.75C43.3467 15.75 43.919 15.9871 44.341 16.409C44.7629 16.831 45 17.4033 45 18V20.25Z" fill="#004DA1"/>
</svg>
